<?xml version="1.0" encoding="iso-8859-1"?>
<!-- Generator: Adobe Illustrator 19.0.0, SVG Export Plug-In . SVG Version: 6.00 Build 0)  -->
<svg version="1.1" id="Layer_1" xmlns="http://www.w3.org/2000/svg" xmlns:xlink="http://www.w3.org/1999/xlink" x="0px" y="0px"
	 viewBox="0 0 512 512" style="enable-background:new 0 0 512 512;" xml:space="preserve">
<path style="fill:#FFE285;" d="M485.883,269.449c0,60.875-52.178,121.749-78.268,147.839
	c-39.134,39.134-135.865,92.383-192.391,35.856c-69.534-69.534-54.771-54.106-114.214-113.549l196.776-196.776
	C415.1,270.333,425.008,295.538,485.883,269.449z"/>
<path style="fill:#F9CE70;" d="M297.787,142.819L101.01,339.596c12.087,12.087,21.106,21.079,28.389,28.319l195.45-195.45
	C316.503,163.262,307.522,153.401,297.787,142.819z"/>
<path style="fill:#69788D;" d="M199.398,192.013l-49.194,49.194L14.92,105.923c-6.792-6.792-6.792-17.805,0-24.597L39.516,56.73
	c6.792-6.792,17.805-6.792,24.597,0L199.398,192.013z"/>
<rect x="124.226" y="160.877" transform="matrix(-0.7071 -0.7071 0.7071 -0.7071 124.2804 442.8029)" style="fill:#56677E;" width="59.244" height="69.57"/>
<path style="fill:#69788D;" d="M303.937,148.968L107.159,345.745l-24.597-24.597c-13.585-13.585-13.585-35.61,0-49.194
	l147.582-147.582c13.585-13.585,35.61-13.585,49.194,0L303.937,148.968z"/>
<g>
	<path style="fill:#3CBDE8;" d="M215.225,51.635c-2.855,2.442-5.809,5.317-8.696,8.696c-10.602,12.411-15.227,25.692-17.393,34.786
		c-2.165-9.093-6.791-22.375-17.393-34.786c-2.887-3.38-5.842-6.255-8.696-8.696c2.855-2.442,5.809-5.317,8.696-8.696
		c10.602-12.411,15.227-25.692,17.393-34.786c2.165,9.093,6.791,22.375,17.393,34.786C209.415,46.318,212.37,49.193,215.225,51.635z
		"/>
	<path style="fill:#3CBDE8;" d="M502.206,460.365c-2.855,2.442-5.809,5.317-8.696,8.696c-10.602,12.411-15.227,25.692-17.393,34.786
		c-2.165-9.093-6.791-22.375-17.393-34.786c-2.887-3.38-5.842-6.255-8.696-8.696c2.855-2.442,5.809-5.317,8.696-8.696
		c10.602-12.411,15.227-25.692,17.393-34.786c2.165,9.093,6.791,22.375,17.393,34.786
		C496.395,455.048,499.351,457.924,502.206,460.365z"/>
	<path style="fill:#3CBDE8;" d="M136.957,460.365c-2.855,2.442-5.809,5.317-8.696,8.696c-10.602,12.411-15.227,25.692-17.393,34.786
		c-2.165-9.093-6.791-22.375-17.393-34.786c-2.887-3.38-5.842-6.255-8.696-8.696c2.855-2.442,5.809-5.317,8.696-8.696
		c10.602-12.411,15.227-25.692,17.393-34.786c2.165,9.093,6.791,22.375,17.393,34.786
		C131.147,455.048,134.103,457.924,136.957,460.365z"/>
</g>
<path d="M413.381,423.053c24.251-24.252,80.656-87.764,80.656-153.604c0-2.74-1.377-5.297-3.664-6.807
	c-2.288-1.509-5.181-1.768-7.7-0.687c-25.746,11.034-39.341,11.359-55.955,1.341c-19.123-11.53-141.613-144.691-141.613-144.691
	c-8.109-8.11-18.892-12.577-30.362-12.577c-11.469,0-22.252,4.467-30.362,12.576l-43.43,43.431l-28.825-28.826
	c-3.183-3.183-8.345-3.183-11.529,0c-3.184,3.185-3.184,8.346,0,11.53l28.825,28.825l-37.664,37.664L20.685,100.16
	c-3.602-3.602-3.602-9.466,0-13.067l24.598-24.598c3.561-3.561,9.506-3.56,13.067,0.001l56.159,56.159
	c3.184,3.183,8.346,3.183,11.529,0c3.184-3.185,3.184-8.346,0-11.53L69.88,50.965c-4.825-4.826-11.24-7.483-18.065-7.483
	c-6.823,0-13.238,2.657-18.063,7.482L9.155,75.562c-9.96,9.96-9.96,26.166,0,36.127l111.071,111.07l-43.429,43.429
	c-8.11,8.11-12.576,18.894-12.576,30.363s4.466,22.252,12.576,30.362c0,0,57.524,57.38,67.084,66.814
	c3.387,3.342,9.062,3.01,12.06-0.671c2.615-3.211,2.338-8.031-0.605-10.937c-8.916-8.797-18.482-18.255-36.64-36.38l42.754-42.754
	l27.156,27.156c3.316,3.314,8.915,3.093,11.963-0.469c2.733-3.192,2.535-8.094-0.434-11.063l-27.154-27.154l34.882-34.882
	l45.059,45.059c3.315,3.314,8.915,3.093,11.963-0.469c2.733-3.192,2.535-8.094-0.434-11.063l-45.059-45.059l36.779-36.779
	l24.981,24.981c3.315,3.314,8.915,3.093,11.963-0.469c2.733-3.192,2.535-8.094-0.434-11.063L267.7,196.732l35.713-35.713
	c10.829,11.854,20.791,22.865,29.649,32.658c39.943,44.156,64.051,70.808,85.234,83.581c20.329,12.258,38.255,11.49,58.695,4.415
	c-1.945,16.423-7.582,32.726-15.021,48.024c-0.043,0.05-0.091,0.096-0.134,0.148c-2.873,1.987-17.693,6.957-34.252,1.438
	c-23.815-7.939-40.144-23.968-40.306-24.129c-3.185-3.176-8.34-3.171-11.519,0.01c-3.184,3.185-3.184,8.346,0,11.53
	c0.766,0.765,19.071,18.859,46.669,28.059c7.006,2.335,14.179,3.317,20.908,3.317c2.644,0,5.213-0.159,7.682-0.439
	c-13.239,21.673-28.705,40.071-39.738,52.047c-0.771-0.388-1.612-0.666-2.513-0.795c-5.388-0.77-16.647-3.674-31.51-14.47
	c-8.633-6.271-30.072-26.96-30.287-27.168c-3.239-3.131-8.401-3.04-11.528,0.199c-3.129,3.238-3.039,8.4,0.198,11.527
	c0.913,0.884,22.482,21.696,32.036,28.635c12.029,8.737,22.374,13.258,30.374,15.572c-12.564,11.694-31.731,25.789-54.102,36.749
	c-4.575-1.822-14.615-6.62-27.224-17.453c-11.192-9.617-25.072-22.935-25.211-23.068c-3.247-3.119-8.408-3.014-11.527,0.233
	c-3.12,3.247-3.015,8.407,0.232,11.527c0.58,0.558,14.339,13.76,25.88,23.675c6.822,5.861,13.062,10.213,18.384,13.427
	c-2.949,1.082-5.93,2.099-8.942,3.027c-27.423,8.452-66.085,12.55-94.552-15.919c-14.963-14.963-26.024-25.993-34.762-34.682
	c-3.193-3.174-8.355-3.161-11.53,0.033c-3.174,3.193-3.16,8.355,0.033,11.529c8.73,8.68,19.781,19.701,34.73,34.651
	c17.955,17.954,40.857,27.039,67.51,27.038c13.542-0.001,28.057-2.347,43.374-7.068c9.141-2.818,18.041-6.343,26.553-10.314
	c0.779-0.232,1.512-0.579,2.187-1.025C376.589,454.363,399.8,436.633,413.381,423.053z M250.406,190.968c0,0-0.001,0-0.001,0.001
	c0,0.001-0.001,0.001-0.001,0.001L107.159,334.215l-18.832-18.833c-5.03-5.03-7.801-11.717-7.801-18.831s2.77-13.802,7.801-18.832
	l147.582-147.582c5.03-5.031,11.718-7.802,18.832-7.802s13.802,2.771,18.832,7.802l18.832,18.831L250.406,190.968z"/>
<path d="M157.747,57.83c2.799,2.395,5.423,5.018,7.796,7.796c7.534,8.819,12.803,19.377,15.661,31.379
	c0.874,3.672,4.156,6.265,7.931,6.265s7.057-2.593,7.931-6.265c2.858-12.002,8.127-22.56,15.66-31.378
	c2.374-2.78,4.998-5.403,7.797-7.797c3.747-3.205,3.747-9.187,0-12.39c-2.799-2.395-5.423-5.018-7.796-7.796
	c-7.534-8.819-12.803-19.377-15.661-31.379C196.192,2.593,192.911,0,189.136,0c-3.775,0-7.057,2.593-7.931,6.265
	c-2.858,12.002-8.127,22.56-15.66,31.378c-2.374,2.78-4.998,5.403-7.797,7.797C154,48.643,154,54.626,157.747,57.83z
	 M177.941,48.233c4.361-5.105,8.1-10.668,11.193-16.65c3.095,5.983,6.832,11.546,11.194,16.651c0.988,1.157,2.011,2.29,3.065,3.4
	c-1.054,1.11-2.077,2.244-3.067,3.401c-4.361,5.105-8.1,10.668-11.193,16.65c-3.095-5.983-6.832-11.546-11.194-16.651
	c-0.988-1.157-2.011-2.29-3.065-3.4C175.93,50.525,176.953,49.391,177.941,48.233z"/>
<path d="M507.505,454.17c-2.799-2.395-5.423-5.018-7.796-7.796c-7.534-8.819-12.803-19.377-15.661-31.379
	c-0.874-3.672-4.156-6.265-7.931-6.265c-3.775,0-7.057,2.593-7.931,6.265c-2.858,12.002-8.127,22.56-15.66,31.378
	c-2.374,2.78-4.998,5.403-7.797,7.797c-3.747,3.205-3.747,9.187,0,12.39c2.799,2.395,5.423,5.018,7.796,7.796
	c7.534,8.819,12.803,19.377,15.661,31.379c0.874,3.672,4.156,6.265,7.931,6.265c3.775,0,7.057-2.593,7.931-6.265
	c2.858-12.002,8.127-22.56,15.66-31.378c2.374-2.78,4.998-5.403,7.797-7.797C511.251,463.357,511.251,457.374,507.505,454.17z
	 M487.31,463.767c-4.361,5.105-8.1,10.668-11.193,16.65c-3.095-5.983-6.832-11.546-11.194-16.651c-0.988-1.157-2.011-2.29-3.065-3.4
	c1.054-1.11,2.077-2.244,3.067-3.401c4.361-5.105,8.1-10.668,11.193-16.65c3.095,5.983,6.832,11.546,11.194,16.651
	c0.988,1.157,2.011,2.29,3.065,3.4C489.321,461.475,488.299,462.609,487.31,463.767z"/>
<path d="M142.257,454.17c-2.799-2.395-5.423-5.018-7.796-7.796c-7.534-8.819-12.803-19.377-15.661-31.379
	c-0.874-3.672-4.156-6.265-7.931-6.265c-3.775,0-7.057,2.593-7.931,6.265c-2.858,12.002-8.127,22.56-15.66,31.378
	c-2.374,2.78-4.998,5.403-7.797,7.797c-3.747,3.205-3.747,9.187,0,12.39c2.799,2.395,5.423,5.018,7.796,7.796
	c7.534,8.819,12.803,19.377,15.661,31.379c0.874,3.672,4.156,6.265,7.931,6.265c3.775,0,7.057-2.593,7.931-6.265
	c2.858-12.002,8.127-22.56,15.66-31.378c2.374-2.78,4.998-5.403,7.797-7.797C146.003,463.357,146.003,457.374,142.257,454.17z
	 M122.061,463.767c-4.361,5.105-8.1,10.668-11.193,16.65c-3.095-5.983-6.832-11.546-11.194-16.651
	c-0.988-1.157-2.011-2.29-3.065-3.4c1.054-1.11,2.077-2.244,3.067-3.401c4.361-5.105,8.1-10.668,11.193-16.65
	c3.095,5.983,6.832,11.546,11.194,16.651c0.988,1.157,2.011,2.29,3.065,3.4C124.073,461.475,123.051,462.609,122.061,463.767z"/>
<g>
</g>
<g>
</g>
<g>
</g>
<g>
</g>
<g>
</g>
<g>
</g>
<g>
</g>
<g>
</g>
<g>
</g>
<g>
</g>
<g>
</g>
<g>
</g>
<g>
</g>
<g>
</g>
<g>
</g>
</svg>
