<?xml version="1.0" encoding="UTF-8"?>
<svg width="171px" height="160px" viewBox="0 0 171 160" version="1.1" xmlns="http://www.w3.org/2000/svg" xmlns:xlink="http://www.w3.org/1999/xlink">
    <!-- Generator: Sketch 46.2 (44496) - http://www.bohemiancoding.com/sketch -->
    <title>Group</title>
    <desc>Created with Sketch.</desc>
    <defs></defs>
    <g id="Page-1" stroke="none" stroke-width="1" fill="none" fill-rule="evenodd">
        <g id="Group" transform="translate(0.000000, 1.000000)">
            <path d="M67,18 C71.9705627,18 76.0113784,12.9965923 76.0113784,10.5113109 C76.0113784,8.02602951 71.9705627,9 67,9 C62.0294373,9 51.4305458,13.3452892 51.4305458,15.8305706 C51.4305458,18.315852 62.0294373,18 67,18 Z" id="Oval-5" stroke="#FFFFFF" fill="#417505"></path>
            <path d="M87.5,159 C129.197499,159 170.171875,126.98836 170.171875,87.5 C170.171875,48.0116404 129.197499,16 87.5,16 C45.8025014,16 0.36328125,54.2577341 0.36328125,93.7460938 C0.36328125,133.234453 45.8025014,159 87.5,159 Z" id="Oval" fill="#FE0000"></path>
            <path d="M63.6069508,60.2747022 C66.9622606,53.9848343 68.6399156,46.6057173 68.6399156,38.1373511 C68.6399156,25.4348019 80.2989899,16 74.5,16 C68.7010101,16 44.0172788,16.5826195 44.0172788,29.2851688 C44.0172788,37.753535 50.5471695,48.0833794 63.6069508,60.2747022 Z" id="Oval-2" stroke="#FFFFFF" fill="#519305"></path>
            <path d="M99.0885288,13.2564492 C106.917347,13.9733175 113.74409,16.2657888 119.568756,20.1338632 C119.270137,6.97442753 113.413885,0.394709722 102,0.394709722 C84.8791728,0.394709722 73.942707,10.9854203 73.942707,15.955983 C73.942707,20.9265458 87.345301,12.1811468 99.0885288,13.2564492 Z" id="Oval-4" stroke="#FFFFFF" fill="#519305"></path>
            <path d="M95.5,56 C108.5,50.0304633 115,43.3637967 115,36 C115,24.954305 92.3162586,11.6286215 79.8649597,15.0476931 C67.4136609,18.4667648 84.8852566,24.954305 84.8852566,36 C84.8852566,43.3637967 88.4235044,50.0304633 95.5,56 Z" id="Oval-3" stroke="#FFFFFF" fill="#417505"></path>
            <path d="M75.7993481,16.8286099 C76.9039176,16.8286099 76.573798,13.6089501 76.573798,12.5043806 C76.573798,11.3998111 74.8018642,12.1208932 73.6972947,12.1208932 C72.5927252,12.1208932 73.6972947,14.8080861 73.6972947,15.9126556 C73.6972947,17.0172251 74.6947786,16.8286099 75.7993481,16.8286099 Z" id="Oval-6" stroke="#FFFFFF" fill="#2C4F03"></path>
        </g>
    </g>
</svg>